<svg id="filled_outline" height="512" viewBox="0 0 512 512" width="512" xmlns="http://www.w3.org/2000/svg" data-name="filled outline"><path d="m320 488h-96l-.211-94.874-23.789-17.126v-24l-56-56a45.255 45.255 0 0 1 64 0v-96h32v64h64v-48h32v152l-16 16z" fill="#f7c0a1"/><path d="m304 216h16v48h-16z" fill="#e2a688"/><path d="m239.789 377.126-23.789-17.126v-24l-51.708-51.708a45.021 45.021 0 0 0 -20.292 11.708l56 56v24l23.789 17.126.211 94.874h15.973z" fill="#e2a688"/><path d="m224 304v-104h-16v93.67a45.07 45.07 0 0 1 16 10.33z" fill="#e2a688"/><path d="m239.999 264h32v64h-32z" fill="#f7c0a1"/><path d="m271.999 328h-32l.001-64 16-.001v40.001h16z" fill="#e2a688"/><path d="m272 264h32v64h-32z" fill="#f7c0a1"/><path d="m304 328h-32l.001-64 16-.001v40.001h16z" fill="#e2a688"/><circle cx="344" cy="432" fill="#252364" r="24"/><circle cx="392" cy="432" fill="#252364" r="24"/><circle cx="440" cy="432" fill="#252364" r="24"/><circle cx="368" cy="456" fill="#35378f" r="24"/><circle cx="416" cy="456" fill="#35378f" r="24"/><circle cx="48" cy="432" fill="#252364" r="24"/><circle cx="96" cy="432" fill="#252364" r="24"/><circle cx="144" cy="432" fill="#252364" r="24"/><circle cx="192" cy="432" fill="#252364" r="24"/><circle cx="464" cy="456" fill="#35378f" r="24"/><circle cx="72" cy="456" fill="#35378f" r="24"/><circle cx="120" cy="456" fill="#35378f" r="24"/><circle cx="168" cy="456" fill="#35378f" r="24"/><path d="m133.657 141.657-11.314-11.314 16-16a14.627 14.627 0 0 0 0-20.686 30.624 30.624 0 0 1 0-43.314l16-16 11.314 11.314-16 16a14.627 14.627 0 0 0 0 20.686 30.624 30.624 0 0 1 0 43.314z" fill="#d1e3ee"/><circle cx="304" cy="72" fill="#8cb9dd" r="16"/><circle cx="352" cy="184" fill="#8cb9dd" r="16"/><path d="m279.029 127.029h33.941v33.941h-33.941z" fill="#f7c0a1" transform="matrix(.707 -.707 .707 .707 -15.127 251.48)"/><g fill="#dd156d"><path d="m432.472 192-32.472-31.528 24-24 32.472 31.528z"/><path d="m144 168h16v16h-16z"/><path d="m160 184h16v16h-16z"/><path d="m144 200h16v16h-16z"/><path d="m128 184h16v16h-16z"/></g><path d="m232 16h16v16h-16z" fill="#f2d831"/><path d="m248 32h16v16h-16z" fill="#f2d831"/><path d="m232 48h16v16h-16z" fill="#f2d831"/><path d="m216 32h16v16h-16z" fill="#f2d831"/><path d="m420.422 119.155-18.868-9.434a26.147 26.147 0 0 1 -13.755-29.9 10.3 10.3 0 0 0 -7.5-12.494l-14.239-3.566 3.88-15.522 14.245 3.561a26.3 26.3 0 0 1 19.136 31.9 10.244 10.244 0 0 0 5.389 11.714l18.868 9.434z" fill="#35378f"/><path d="m176 112 32 32 16-48z" fill="#f2d831"/><path d="m56.748 181.312h33.941v33.941h-33.941z" fill="#a31a5a" transform="matrix(.707 -.707 .707 .707 -118.615 110.203)"/><path d="m224 416h96v32h-96z" fill="#f2d831"/><path d="m224 416h48v32h-48z" fill="#d1b320"/><path d="m376 216h16v16h-16z" fill="#8cb9dd"/><path d="m344 96h16v16h-16z" fill="#8cb9dd"/><path d="m88 96h16v16h-16z" fill="#35378f"/><path d="m312 16h16v16h-16z" fill="#35378f"/><path d="m96 240h16v16h-16z" fill="#35378f"/><path d="m184 48h16v16h-16z" fill="#35378f"/><path d="m471.178 424.822a31.971 31.971 0 0 0 -55.178-13.954 31.934 31.934 0 0 0 -48 0 31.916 31.916 0 0 0 -40-6.563v-16.992l13.657-13.656a8 8 0 0 0 2.343-5.657v-152a8 8 0 0 0 -8-8h-32a8 8 0 0 0 -8 8v40h-48v-56a8 8 0 0 0 -8-8h-32a8 8 0 0 0 -8 8v80.43a53.345 53.345 0 0 0 -61.657 9.913 8 8 0 0 0 0 11.314l53.657 53.656v20.687a8 8 0 0 0 3.326 6.493l20.474 14.738.03 13.438a31.938 31.938 0 0 0 -47.828.2 31.934 31.934 0 0 0 -48 0 31.934 31.934 0 0 0 -48 0 31.979 31.979 0 0 0 -56.002 21.131h16a15.99 15.99 0 0 1 30.568-6.58 32 32 0 1 0 33.432 51.712 31.934 31.934 0 0 0 48 0 31.99 31.99 0 1 0 33.432-51.712 15.99 15.99 0 0 1 30.568 6.58h7.875l.125 56.018a8 8 0 0 0 8 7.982h96a8 8 0 0 0 8-8v-56a15.99 15.99 0 0 1 30.568-6.58 32 32 0 1 0 33.432 51.712 31.934 31.934 0 0 0 48 0 31.988 31.988 0 1 0 31.178-52.31zm-327.178-8.822a16.01 16.01 0 0 1 14.568 9.42 32.076 32.076 0 0 0 -14.568 9.448 32.076 32.076 0 0 0 -14.568-9.448 16.011 16.011 0 0 1 14.568-9.42zm-48 0a16.01 16.01 0 0 1 14.568 9.42 32.076 32.076 0 0 0 -14.568 9.448 32.076 32.076 0 0 0 -14.568-9.448 16.011 16.011 0 0 1 14.568-9.42zm-24 56a16 16 0 1 1 16-16 16.019 16.019 0 0 1 -16 16zm48 0a16 16 0 1 1 16-16 16.019 16.019 0 0 1 -16 16zm64-16a16 16 0 1 1 -16-16 16.019 16.019 0 0 1 16 16zm96-184h16v48h-16zm-16 0v48h-16v-48zm-56 99.9v-19.9a8 8 0 0 0 -2.343-5.657l-49.738-49.738a37.288 37.288 0 0 1 46.424 5.052 8 8 0 0 0 13.657-5.657v-88h16v120a8 8 0 0 0 8 8h64a8 8 0 0 0 8-8v-104h16v140.687l-13.657 13.656a8 8 0 0 0 -2.343 5.657v24h-80.178l-.033-14.892a8 8 0 0 0 -3.326-6.475zm23.982 108.1-.053-24h80.071v24zm80.018-40h-80.106l-.036-16h80.142zm128-24a16.01 16.01 0 0 1 14.568 9.42 32.076 32.076 0 0 0 -14.568 9.448 32.076 32.076 0 0 0 -14.568-9.448 16.011 16.011 0 0 1 14.568-9.42zm-48 0a16.01 16.01 0 0 1 14.568 9.42 32.076 32.076 0 0 0 -14.568 9.448 32.076 32.076 0 0 0 -14.568-9.448 16.011 16.011 0 0 1 14.568-9.42zm-24 56a16 16 0 1 1 16-16 16.019 16.019 0 0 1 -16 16zm48 0a16 16 0 1 1 16-16 16.019 16.019 0 0 1 -16 16zm48 0a16 16 0 1 1 16-16 16.019 16.019 0 0 1 -16 16z"/><path d="m122.343 130.343 11.314 11.314 16-16a30.624 30.624 0 0 0 0-43.314 14.627 14.627 0 0 1 0-20.686l16-16-11.314-11.314-16 16a30.624 30.624 0 0 0 0 43.314 14.627 14.627 0 0 1 0 20.686z"/><path d="m280 72a24 24 0 1 0 24-24 24.027 24.027 0 0 0 -24 24zm32 0a8 8 0 1 1 -8-8 8.009 8.009 0 0 1 8 8z"/><path d="m328 184a24 24 0 1 0 24-24 24.027 24.027 0 0 0 -24 24zm24-8a8 8 0 1 1 -8 8 8.009 8.009 0 0 1 8-8z"/><path d="m266.343 149.657 24 24a8 8 0 0 0 11.314 0l24-24a8 8 0 0 0 0-11.314l-24-24a8 8 0 0 0 -11.314 0l-24 24a8 8 0 0 0 0 11.314zm29.657-18.344 12.687 12.687-12.687 12.687-12.687-12.687z"/><path d="m394.343 154.815a8 8 0 0 0 .084 11.4l32.473 31.525a8 8 0 0 0 11.231-.083l24-24a8 8 0 0 0 -.084-11.4l-32.472-31.528a8 8 0 0 0 -11.23.083zm29.74-7.112 20.991 20.381-12.685 12.685-20.989-20.381z"/><path d="m144 168h16v16h-16z"/><path d="m160 184h16v16h-16z"/><path d="m144 200h16v16h-16z"/><path d="m128 184h16v16h-16z"/><path d="m232 16h16v16h-16z"/><path d="m248 32h16v16h-16z"/><path d="m232 48h16v16h-16z"/><path d="m216 32h16v16h-16z"/><path d="m400.359 63.785a26.13 26.13 0 0 0 -16.174-11.985l-14.245-3.561-3.88 15.522 14.24 3.561a10.3 10.3 0 0 1 7.5 12.494 26.147 26.147 0 0 0 13.755 29.905l18.868 9.434 7.156-14.31-18.869-9.434a10.244 10.244 0 0 1 -5.389-11.711 26.125 26.125 0 0 0 -2.962-19.915z"/><path d="m168.214 110.162a8 8 0 0 0 2.129 7.495l32 32a8 8 0 0 0 13.247-3.127l16-48a8 8 0 0 0 -10.12-10.119l-48 16a8 8 0 0 0 -5.256 5.751zm43.137-1.513-6.851 20.541-13.69-13.69z"/><path d="m68.062 168.625-24 24a8 8 0 0 0 0 11.314l24 24a8 8 0 0 0 11.314 0l24-24a8 8 0 0 0 0-11.314l-24-24a8 8 0 0 0 -11.314 0zm5.657 42.344-12.687-12.687 12.687-12.682 12.686 12.686z"/><path d="m376 216h16v16h-16z"/><path d="m344 96h16v16h-16z"/><path d="m88 96h16v16h-16z"/><path d="m312 16h16v16h-16z"/><path d="m96 240h16v16h-16z"/><path d="m184 48h16v16h-16z"/></svg>